<?xml version="1.0" ?><!DOCTYPE svg  PUBLIC '-//W3C//DTD SVG 1.1//EN'  'http://www.w3.org/Graphics/SVG/1.1/DTD/svg11.dtd'><svg enable-background="new 0 0 512 512" height="512px" id="Layer_1" version="1.1" viewBox="0 0 512 512" width="512px" xml:space="preserve" xmlns="http://www.w3.org/2000/svg" xmlns:xlink="http://www.w3.org/1999/xlink"><g><g><path d="M7.921,256.005c0-137.021,111.07-248.083,248.076-248.083c137.012,0,248.082,111.062,248.082,248.082    c0,137.005-111.07,248.074-248.082,248.074C118.991,504.078,7.921,393.009,7.921,256.005z" fill="#D8DBBA"/></g><g><g><path d="M90.474,268.879c0-79.988,52.078-144.82,165.524-144.82c113.446,0,165.528,64.832,165.528,144.819     c0,79.978-64.585,138.051-165.528,138.051C155.054,406.929,90.474,348.855,90.474,268.879z" fill="#EF7029"/></g><g><path d="M90.474,268.879c0-79.988,52.078-144.82,165.524-144.82v282.87     C155.054,406.929,90.474,348.855,90.474,268.879z" fill="#ED902B"/></g><g><path d="M103.582,274.112c0-76.957,47.953-139.332,152.416-139.332c104.462,0,152.42,62.375,152.42,139.331     c0,76.945-59.471,132.818-152.42,132.818C163.048,406.929,103.582,351.056,103.582,274.112z" fill="#E56628"/></g><g><path d="M103.582,274.112c0-76.957,47.953-139.332,152.416-139.332v272.149     C163.048,406.929,103.582,351.056,103.582,274.112z" fill="#E27829"/></g><g><path d="M105.229,274.112c0-76.957,53.925-139.332,150.769-139.332c96.843,0,150.772,62.375,150.772,139.331     c0,76.945-58.828,132.818-150.772,132.818C164.053,406.929,105.229,351.056,105.229,274.112z" fill="#ED792B"/></g><g><path d="M105.229,274.112c0-76.957,53.925-139.332,150.769-139.332v272.149     C164.053,406.929,105.229,351.056,105.229,274.112z" fill="#E88B2E"/></g><g><path d="M140.819,268.879c0-117.7,83.646-133.483,115.18-133.483c31.533,0,115.182,15.725,115.182,133.482     c0,117.757-44.57,138.051-115.182,138.051C185.386,406.929,140.819,386.579,140.819,268.879z" fill="#E27829"/></g><g><path d="M143.657,268.879c0-117.131,85.156-132.866,112.342-132.866c27.185,0,112.344,16.246,112.344,132.865     s-43.834,138.051-112.344,138.051C187.488,406.929,143.657,386.011,143.657,268.879z" fill="#EA7E2D"/></g><g><path d="M143.657,268.879c0-117.131,85.156-132.866,112.342-132.866c0,0,3.023,270.917,0,270.917     C187.488,406.929,143.657,386.011,143.657,268.879z" fill="#E5852E"/></g><g><path d="M181.388,268.879c0-79.988,57.913-144.82,74.61-144.82c16.698,0,74.614,64.832,74.614,144.819     c0,101.65-28.516,138.051-74.614,138.051C209.901,406.929,181.388,370.528,181.388,268.879z" fill="#E27329"/></g><g><path d="M184.139,268.879c0-79.988,57.462-144.82,71.859-144.82c14.398,0,71.863,64.832,71.863,144.819     c0,101.65-28.039,138.051-71.863,138.051C212.176,406.929,184.139,370.528,184.139,268.879z" fill="#EA7E2D"/></g><g><path d="M227.778,268.879c0-79.988,21.905-144.82,28.221-144.82s28.222,64.832,28.222,144.819     c0,113.506-10.785,138.051-28.222,138.051C238.563,406.929,227.778,382.384,227.778,268.879z" fill="#E56628"/></g><g><path d="M229.979,268.879c0-79.988,20.807-144.82,26.021-144.82c5.213,0,26.022,64.832,26.022,144.819     c0,113.506-10.153,138.051-26.022,138.051S229.979,381.396,229.979,268.879z" fill="#EA7E2D"/></g><g><g><polygon fill="#DD5B28" points="185.301,199.226 166.496,259.892 235.801,260.584     "/><g><polygon fill="#874C35" points="190.178,207.774 176.152,259.988 235.801,260.584      "/></g></g><g><polygon fill="#DD5B28" points="326.699,199.226 345.504,259.892 276.199,260.584     "/><g><polygon fill="#874C35" points="321.822,207.774 335.848,259.988 276.199,260.584      "/></g></g></g><g><path d="M221.403,125.449c3.363-0.572,8.136-0.047,11.435-0.446c7.235-0.876,13.78-2.576,23.16-2.576     c9.661,0,15.585,1.728,23.017,2.655c3.743,0.467,9.06-0.445,13.607,0.727c0,0-12.72,12.711-13.186,12.665     c-4.919-0.509-10.898-2.227-23.439-2.227c-12.809,0-18.759,1.79-23.728,2.251C231.897,138.534,221.403,125.449,221.403,125.449z" fill="#E56628"/></g><g><g><path d="M224.003,125.2c2.93-0.599,4.017-0.672,8.835-0.197c6.49,2.57,7.005,12.389,7.005,12.389      c-3.562,0.526-6.191,1.062-8.679,1.188c0,0,6.639-1.777,4.25-4.893C229.374,125.809,223.941,125.212,224.003,125.2z" fill="#E5852E"/></g><g><path d="M233.275,124.945c2.931-0.599,4.026-1.343,8.844-0.87c4.699,1.862,6.375,7.848,6.943,11.01      c0.216,1.203-10.895,2.576-10.25,1.527c0.695-1.13,1.242-2.762,0.516-4.666C236.74,125.162,233.275,124.945,233.275,124.945z" fill="#EA7E2D"/></g><g><path d="M220.144,125.519c-5.988,0.15-13.943,1.729-17.88,4.35c0,0,3.194,0.831,12.806,2.948      c8.118,1.787,16.572,5.583,16.952,5.613c0.554,0.042,2.633-0.247,5.117-0.708C237.558,137.644,228.823,125.519,220.144,125.519z      " fill="#E56628"/></g><g><path d="M221.134,125.398c-5.987,0.149-14.159,1.414-18.097,4.035c0,0,8.825,1.59,13.095,2.658      c9.085,2.271,16.298,5.728,16.679,5.757c0.554,0.042,1.564,0.102,3.179,0.145c0.975,0.026-0.974-0.282,1.072-0.662      C237.394,137.269,229.814,125.398,221.134,125.398z" fill="#E88B2E"/></g></g><g><g><path d="M288.119,125.2c-2.929-0.599-4.017-0.672-8.834-0.197c-6.491,2.57-7.005,12.389-7.005,12.389      c3.562,0.526,6.191,1.062,8.679,1.188c0,0-6.64-1.777-4.25-4.893C282.749,125.809,288.181,125.212,288.119,125.2z" fill="#EF7029"/></g><g><path d="M278.847,124.945c-2.93-0.599-4.026-1.343-8.843-0.87c-4.947,1.959-6.544,8.487-7.023,11.482      c-0.027,0.168,10.603,1.477,10.45,1.248c-0.749-1.134-1.405-2.843-0.637-4.858C275.383,125.162,278.847,124.945,278.847,124.945      z" fill="#EF7029"/></g><g><path d="M291.979,125.519c5.987,0.15,13.942,1.729,17.879,4.35c0,0-3.194,0.831-12.806,2.948      c-8.118,1.787-16.572,5.583-16.953,5.613c-0.553,0.042-2.633-0.247-5.116-0.708      C274.565,137.644,283.299,125.519,291.979,125.519z" fill="#E56628"/></g><g><path d="M290.988,125.398c5.988,0.149,14.16,1.414,18.097,4.035c0,0-8.825,1.59-13.095,2.658      c-9.085,2.271-16.299,5.728-16.68,5.757c-0.553,0.042-1.562,0.102-3.178,0.145c-0.976,0.026,0.975-0.282-1.072-0.662      C274.729,137.269,282.309,125.398,290.988,125.398z" fill="#ED792B"/></g></g><path d="M266.245,107.446c0-12.024-10.535-27.932-12.564-30.637c-1.508-2.011-3.708-2.048-5.702-1.257    c-1.401,0.555-4.38,1.762-6.91,3.672c-2.764,2.088-3.915,3.552-4.711,4.711c-0.619,0.9-2.047,3.075-0.145,5.582    c2.126,2.803,9.544,10.054,9.544,18.123c0,12.949-7.063,19.915-11.333,26.445c-1.042,1.594-2.406,2.654-2.971,3.418    c-0.438,0.591-0.2,1.069-0.2,1.069c2.461-0.133,5.071,0.546,8.591,0.026c3.912-0.578,8.947-2.352,16.155-2.352    c6.863,0,11.761,1.723,15.595,2.271c3.835,0.548,6.606-0.077,9.216,0.062c0,0,0.252-0.689-0.163-1.258    c-0.592-0.808-2.032-1.766-3.164-3.531C273.183,127.094,266.245,120.12,266.245,107.446z" fill="#898029"/><path d="M247.978,75.552c-1.401,0.555-4.38,1.762-6.91,3.672c-2.764,2.088-3.915,3.552-4.711,4.711    c-0.619,0.9-2.047,3.075-0.145,5.582c2.126,2.803,9.544,10.054,9.544,18.123c0,12.949-7.063,19.915-11.333,26.445    c-1.042,1.594-2.406,2.654-2.971,3.418c-0.438,0.591-0.2,1.069-0.2,1.069c2.461-0.133,5.071,0.546,8.591,0.026    c3.912-0.578,8.947-2.352,16.155-2.352c6.863,0,11.761,1.723,15.595,2.271c1.391,0.199-13.389-7.807-11.534-18.701    C264.553,93.432,249.249,75.048,247.978,75.552z" fill="#9B9240"/><g><path d="M261.666,121.263c2.995-22.572-7.156-39.39-12.916-45.97c-0.26,0.071-0.518,0.158-0.772,0.259     c-0.513,0.203-1.241,0.497-2.077,0.876c6.068,7.358,15.703,24.386,12.708,46.948c-0.725,5.464,2.243,10.137,5.747,13.697     c2.806,0.523,5.182,1.149,7.236,1.445c0.152,0.021,0.291,0.03,0.439,0.049C267.339,135.137,260.636,129.021,261.666,121.263z" fill="#928B31"/></g><g><path d="M239.334,131.724c0.675-2.405,1.181-4.764,1.557-7.072c-2.133,3.552-4.574,6.537-6.468,9.434     c-1.042,1.594-2.406,2.654-2.971,3.418c-0.438,0.591-0.2,1.069-0.2,1.069c2.339-0.126,4.822,0.469,8.083,0.083     C238.761,136.444,238.664,134.11,239.334,131.724z" fill="#9B9240"/><path d="M236.211,89.518c0.173,0.229,0.392,0.497,0.629,0.783c-0.52-1.236-1.051-2.386-1.581-3.44     C235.249,87.664,235.49,88.567,236.211,89.518z" fill="#9B9240"/><path d="M242.657,130.063c1.487-5.3,2.161-10.372,2.268-15.125c-0.874,3.748-2.352,6.913-4.035,9.714     c-0.375,2.308-0.881,4.667-1.557,7.072c-0.67,2.386-0.573,4.72,0.001,6.932c0.17-0.021,0.333-0.031,0.507-0.057     c0.988-0.146,2.049-0.369,3.197-0.619C242.172,135.489,241.886,132.813,242.657,130.063z" fill="#928B31"/></g><g><g><g><path d="M252.852,124.516c5.527-21.653-5.743-37.449-13.31-44.061c-0.887,0.762-1.557,1.435-2.071,2.029       c7.776,7.669,17.671,22.102,11.82,43.663c-1.024,3.773,0.537,7.293,2.781,10.292c1.239-0.111,2.53-0.191,3.926-0.191       c0.279,0,0.536,0.019,0.809,0.024C253.859,133.104,251.671,129.143,252.852,124.516z" fill="#898029"/></g></g></g><g><path d="M236.508,132.434c0.343-0.891,0.646-1.769,0.932-2.64c-1.068,1.485-2.107,2.901-3.017,4.292     c-1.042,1.594-2.406,2.654-2.971,3.418c-0.438,0.591-0.2,1.069-0.2,1.069c1.57-0.085,3.204,0.159,5.092,0.213     C235.755,136.726,235.681,134.577,236.508,132.434z" fill="#9B9240"/><path d="M240.217,131.178c1.256-3.409,2.047-6.708,2.474-9.877c-1.53,3.22-3.433,5.964-5.251,8.493     c-0.285,0.872-0.588,1.749-0.932,2.64c-0.827,2.144-0.752,4.292-0.164,6.352c1.072,0.03,2.224,0.002,3.499-0.187     c0.139-0.021,0.292-0.053,0.434-0.076C239.454,136.229,239.268,133.756,240.217,131.178z" fill="#898029"/></g><g><g><polygon fill="#DD5B28" points="325.503,325.264 292.524,328.302 259.904,316.627 236.113,330.472 184.909,325.264       156.781,306.972 183.383,315.768 211.812,287.078 236.547,318.321 259.545,286.21 283.412,310.944 311.183,289.682       323.333,312.68 359.784,303.134     "/></g><g><polygon fill="#874C35" points="312.426,367.79 305.435,335.332 280.567,364.416 257.892,330.496 235.944,358.695       209.519,339.172 181.949,352.435 156.781,306.972 186.083,322.96 211.473,298.343 235.23,327.974 259.395,295.621       282.155,319.844 307.809,298.635 321.033,322.154 359.784,303.134     "/></g><g><polygon fill="#DD5B28" points="312.426,367.79 305.435,335.332 280.567,364.416 257.892,330.496 235.944,358.695       209.519,339.172 181.949,352.435 156.781,306.972 184.807,346.25 209.057,336.75 235.807,355 258.141,327.833 281.307,354.75       305.057,332.25 315.057,356.75 359.784,303.134     "/></g></g></g></g></svg>